# xmcd
#
# Track frame offsets:
#	150
#	14127
#	22437
#	35150
#	53740
#	65540
#	73272
#	87175
#	98575
#	110610
#	122432
#	132200
#	147787
#	158307
#	172045
#	182215
#
# Disc length: 2606 seconds
#
# Revision: 4
# Processed by: cddbd v1.5.2PL0 Copyright (c) Steve Scherf et al.
# Submitted via: audiograbber 1.83.01
#
DISCID=e40a2c10
DTITLE=Elvis Presley - The Elvis Presley Collection - Treasures 1970-1976 [Disc
DTITLE=2]
DYEAR=1999
DGENRE=
TTITLE0=Whole lotta shakin' goin' on
TTITLE1=Little cabin on the hill
TTITLE2=It ain't no big thing (But it's growing)
TTITLE3=Tomorrow never comes
TTITLE4=I will be true
TTITLE5=A hundred Years from now
TTITLE6=It's a matter of time
TTITLE7=I'll take you home again Kathleen
TTITLE8=Talk about the good times
TTITLE9=If you talk in your sleep
TTITLE10=Mr Songman
TTITLE11=How the Web was woven
TTITLE12=Susan when she tried
TTITLE13=Bringin' it back
TTITLE14=I miss you
TTITLE15=Seeing is believing
EXTD=YEAR: 1999
EXTT0=
EXTT1=
EXTT2=
EXTT3=
EXTT4=
EXTT5=
EXTT6=
EXTT7=
EXTT8=
EXTT9=
EXTT10=
EXTT11=
EXTT12=
EXTT13=
EXTT14=
EXTT15=
PLAYORDER=
